<svg version="1.0" id="Layer_1" xmlns="http://www.w3.org/2000/svg" x="0" y="0" viewBox="0 0 71 36" xml:space="preserve"><path fill="#FDB812" d="M21.062 24.954a5.03 5.03 0 0 0-5.025 5.025c0 2.769 2.254 5.023 5.025 5.023s5.025-2.254 5.025-5.023a5.031 5.031 0 0 0-5.025-5.025"/><path fill="#FF2938" d="M6.707 24.954a5.03 5.03 0 0 0-5.025 5.025c0 2.769 2.254 5.023 5.025 5.023s5.025-2.254 5.025-5.023a5.03 5.03 0 0 0-5.025-5.025"/><path fill="#00B057" d="M35.419 24.954a5.03 5.03 0 0 0-5.025 5.025 5.032 5.032 0 0 0 5.025 5.025 5.032 5.032 0 0 0 5.025-5.025 5.032 5.032 0 0 0-5.025-5.025"/><path fill="#00AAE0" d="M64.129 24.954a5.03 5.03 0 0 0-5.025 5.025 5.03 5.03 0 0 0 5.025 5.023 5.028 5.028 0 0 0 5.023-5.023 5.03 5.03 0 0 0-5.023-5.025"/><path fill="#AF38B1" d="M49.774 24.954a5.03 5.03 0 0 0-5.025 5.025 5.03 5.03 0 0 0 5.025 5.023 5.03 5.03 0 0 0 5.025-5.023 5.032 5.032 0 0 0-5.025-5.025"/><path fill="#FFF" d="M10.606 10.627c0-2.169-1.644-3.815-3.817-3.815-2.171 0-3.815 1.646-3.815 3.815 0 2.173 1.644 3.815 3.815 3.815 2.173 0 3.817-1.642 3.817-3.815m-9.606 0c0-3.225 2.586-5.658 5.789-5.658s5.789 2.411 5.789 5.636v4.828c0 .57-.393.987-1.007.987-.636 0-1.009-.417-1.009-.987v-1.164h-.132c-.638 1.118-1.93 2.016-3.795 2.016C3.544 16.285 1 13.851 1 10.627m23.908 0c0-2.169-1.646-3.815-3.815-3.815-2.173 0-3.819 1.646-3.819 3.815 0 2.171 1.646 3.815 3.819 3.815 2.17 0 3.815-1.644 3.815-3.815m-7.37 9.299c-.526-.262-.769-.723-.548-1.251.24-.548.766-.745 1.271-.483a6.52 6.52 0 0 0 2.655.594c2.477 0 3.948-1.446 3.948-3.905v-.612h-.133c-.635 1.118-1.93 2.016-3.795 2.016-3.09 0-5.636-2.433-5.636-5.658s2.59-5.658 5.792-5.658c3.199 0 5.789 2.411 5.789 5.636v4.145c0 3.511-2.304 5.923-6.032 5.923-1.16 0-2.324-.243-3.311-.747m21.672-9.299c0-2.169-1.644-3.815-3.817-3.815-2.171 0-3.815 1.646-3.815 3.815 0 2.173 1.644 3.815 3.815 3.815 2.173 0 3.817-1.642 3.817-3.815m-9.606 0c0-3.225 2.564-5.658 5.789-5.658 3.202 0 5.789 2.433 5.789 5.658s-2.586 5.658-5.789 5.658c-3.224 0-5.789-2.434-5.789-5.658m23.909 0c0-2.169-1.646-3.815-3.815-3.815-2.173 0-3.819 1.646-3.819 3.815 0 2.173 1.646 3.815 3.819 3.815 2.169 0 3.815-1.642 3.815-3.815m-9.608 0c0-3.225 2.546-5.658 5.636-5.658 1.865 0 3.138.898 3.795 2.016h.133V1.504c0-.57.393-.987 1.009-.987.635 0 1.009.417 1.009.987v9.144c0 3.225-2.59 5.636-5.789 5.636-3.203.001-5.793-2.433-5.793-5.657m23.907 0c0-2.169-1.644-3.815-3.815-3.815-2.171 0-3.815 1.646-3.815 3.815 0 2.173 1.644 3.815 3.815 3.815 2.172 0 3.815-1.642 3.815-3.815m-9.603 0c0-3.225 2.586-5.658 5.789-5.658 3.202 0 5.789 2.411 5.789 5.636v4.828c0 .57-.393.987-1.009.987-.635 0-1.007-.417-1.007-.987v-1.164h-.131c-.638 1.118-1.93 2.016-3.795 2.016-3.094 0-5.636-2.434-5.636-5.658"/></svg>