<svg id="Layer_1" data-name="Layer 1" xmlns="http://www.w3.org/2000/svg" viewBox="0 0 210.27 107.12"><path d="M61.55 75.92a15.6 15.6 0 1 0 15.6 15.6 15.62 15.62 0 0 0-15.6-15.6" fill="#fbb900"/><path d="M18 75.92a15.6 15.6 0 1 0 15.6 15.6A15.62 15.62 0 0 0 18 75.92" fill="#e62933"/><path d="M105.14 75.92a15.6 15.6 0 1 0 15.6 15.6 15.62 15.62 0 0 0-15.6-15.6" fill="#09a548"/><path d="M192.33 75.92a15.6 15.6 0 1 0 15.6 15.6 15.61 15.61 0 0 0-15.6-15.6" fill="#1fa8e0"/><path d="M148.74 75.92a15.6 15.6 0 1 0 15.59 15.6 15.61 15.61 0 0 0-15.59-15.6" fill="#a83e8f"/><path d="M31 31.72a12.52 12.52 0 0 0-12.8-12.8 12.51 12.51 0 0 0-12.83 12.8 12.51 12.51 0 0 0 12.79 12.79A12.51 12.51 0 0 0 31 31.72m-31 0C0 21.6 8.12 14 18.16 14s18.17 7.57 18.17 17.68V47.2a2.58 2.58 0 0 1-2.75 2.68 2.55 2.55 0 0 1-2.76-2.68v-4.54h-.27c-2.13 3.64-6.4 6.81-12.73 6.81A17.59 17.59 0 0 1 0 31.72m74.45 0a12.8 12.8 0 0 0-25.6 0 12.8 12.8 0 0 0 25.6 0M50.5 61a2.57 2.57 0 0 1-1.58-3.37 2.33 2.33 0 0 1 3.37-1.45 21.07 21.07 0 0 0 8.88 2c8.18 0 13.14-4.89 13.14-13.21v-2.31H74c-2.13 3.64-6.4 6.81-12.73 6.81a17.59 17.59 0 0 1-17.79-17.75C43.48 21.6 51.6 14 61.65 14s18.16 7.57 18.16 17.68v12.9c0 11.15-7.15 18.65-18.85 18.65A24.15 24.15 0 0 1 50.5 61m67.43-29.28a12.8 12.8 0 1 0-25.59 0 12.8 12.8 0 0 0 25.59 0m-31 0C87 21.6 95 14 105.13 14s18.17 7.6 18.17 17.72-8 17.75-18.17 17.75S87 41.83 87 31.72m74.42 0a12.8 12.8 0 1 0-25.6 0 12.8 12.8 0 0 0 25.6 0m-31 0A17.59 17.59 0 0 1 148.27 14c6.33 0 10.6 3.16 12.73 6.81h.28V2.68A2.58 2.58 0 0 1 164 0a2.54 2.54 0 0 1 2.75 2.68v29.11c0 10.11-8.05 17.68-18.16 17.68s-18.17-7.64-18.17-17.75m74.48 0a12.8 12.8 0 1 0-25.59 0 12.8 12.8 0 0 0 25.59 0m-31 0C173.94 21.6 182.06 14 192.1 14s18.17 7.57 18.17 17.68V47.2a2.58 2.58 0 0 1-2.76 2.68 2.54 2.54 0 0 1-2.75-2.68v-4.54h-.27c-2.14 3.64-6.4 6.81-12.73 6.81a17.59 17.59 0 0 1-17.82-17.75" fill="#605d5c"/></svg>